<?xml version="1.0" encoding="utf-8"?>
<!-- Generator: Adobe Illustrator 24.3.0, SVG Export Plug-In . SVG Version: 6.00 Build 0)  -->
<svg version="1.1" id="Layer_1" xmlns="http://www.w3.org/2000/svg" xmlns:xlink="http://www.w3.org/1999/xlink" x="0px" y="0px"
	 viewBox="0 0 289 289" style="enable-background:new 0 0 289 289;" xml:space="preserve">
<style type="text/css">
	.st0{fill:#1A3652;}
	.st1{fill:#FFFFFF;}
</style>
<circle class="st0" cx="144.5" cy="144.5" r="144.5"/>
<path class="st1" d="M152.1,118.5h6.1c7.8,13.6,22.5,22.7,39.3,22.7c3.9,0,7.7-0.5,11.3-1.4v1.4v11.3v68c0,6.3-5.1,11.3-11.3,11.3
	c-6.3,0-11.3-5.1-11.3-11.3v-49.9L138,209.1h19.8c6.3,0,11.3,5.1,11.3,11.3c0,6.3-5.1,11.3-11.3,11.3h-51c-18.8,0-34-15.2-34-34
	v-79.2c0-5.7-4.3-10.6-9.9-11.3l-2.8-0.4c-6.2-0.7-10.6-6.4-9.9-12.6s6.4-10.6,12.6-9.8l2.8,0.4c17,2.1,29.8,16.6,29.8,33.8v30.2
	C107.6,130.6,128.4,118.5,152.1,118.5L152.1,118.5z M208.8,127.9L208.8,127.9c-3.5,1.2-7.4,1.9-11.3,1.9c-10.1,0-19.1-4.4-25.4-11.3
	l0,0c-1.3-1.5-2.5-3-3.5-4.7c-3.3-5.2-5.1-11.4-5.1-18l0,0v-34v-7.1v-0.5c0-2.1,1.7-3.8,3.8-3.8h0.1c1.2,0,2.3,0.6,3,1.5l0,0l4.5,6
	l9.6,12.9l1.7,2.3h22.7l1.7-2.3l9.6-12.9l4.5-6l0,0c0.7-0.9,1.8-1.5,3-1.5h0.1c2.1,0,3.8,1.7,3.8,3.8v0.5v7.1v34
	c0,6.1-1.6,11.9-4.5,16.9C223,119.7,216.5,125.2,208.8,127.9z M191.8,95.9c0-3.1-2.6-5.7-5.7-5.7s-5.7,2.6-5.7,5.7s2.6,5.7,5.7,5.7
	S191.8,99,191.8,95.9z M208.8,101.5c3.1,0,5.7-2.6,5.7-5.7s-2.6-5.7-5.7-5.7s-5.7,2.6-5.7,5.7S205.7,101.5,208.8,101.5z"/>
<path class="st1" d="M154.5,44.8c-0.7,0.2-1.3,0.3-2,0.5c-2,0.5-4,1-6,1.4c-0.1,0-0.2,0.1-0.2,0.2c-0.6,2.6-1.3,5.2-1.9,7.8v0.1
	c0-0.1-0.1-0.2-0.1-0.2c-0.6-2.6-1.2-5.1-1.8-7.7c0-0.1-0.1-0.2-0.2-0.2c-2.6-0.6-5.2-1.2-7.8-1.9c0,0-0.1,0-0.1-0.1
	c0.4-0.1,0.7-0.2,1.1-0.3c2.3-0.5,4.6-1.1,6.9-1.6c0.1,0,0.2-0.1,0.2-0.2c0.6-2.6,1.3-5.2,1.9-7.9c0,0,0,0,0-0.1
	c0,0.1,0.1,0.2,0.1,0.2c0.6,2.6,1.2,5.1,1.8,7.7c0,0.2,0.1,0.2,0.2,0.2C149.2,43.5,151.8,44.2,154.5,44.8
	C154.4,44.8,154.4,44.8,154.5,44.8z"/>
</svg>