<?xml version="1.0" encoding="utf-8"?>
<!-- Generator: Adobe Illustrator 24.3.0, SVG Export Plug-In . SVG Version: 6.00 Build 0)  -->
<svg version="1.1" id="Layer_1" xmlns="http://www.w3.org/2000/svg" xmlns:xlink="http://www.w3.org/1999/xlink" x="0px" y="0px"
	 viewBox="0 0 500 500" style="enable-background:new 0 0 500 500;" xml:space="preserve">
<style type="text/css">
	.st0{fill:#1A3652;}
	.st1{fill:#FFFFFF;}
</style>
<circle class="st0" cx="251" cy="247" r="144.5"/>
<path class="st1" d="M258.6,221h6.1c7.8,13.6,22.5,22.7,39.3,22.7c3.9,0,7.7-0.5,11.3-1.4v1.4V255v68c0,6.3-5.1,11.3-11.3,11.3
	c-6.3,0-11.3-5.1-11.3-11.3v-49.9l-48.2,38.5h19.8c6.3,0,11.3,5.1,11.3,11.3c0,6.3-5.1,11.3-11.3,11.3h-51c-18.8,0-34-15.2-34-34
	v-79.2c0-5.7-4.3-10.6-9.9-11.3l-2.8-0.4c-6.2-0.7-10.6-6.4-9.9-12.6s6.4-10.6,12.6-9.8l2.8,0.4c17,2.1,29.8,16.6,29.8,33.8v30.2
	C214.1,233.1,234.9,221,258.6,221L258.6,221z M315.3,230.4L315.3,230.4c-3.5,1.2-7.4,1.9-11.3,1.9c-10.1,0-19.1-4.4-25.4-11.3l0,0
	c-1.3-1.5-2.5-3-3.5-4.7c-3.3-5.2-5.1-11.4-5.1-18l0,0v-34v-7.1v-0.5c0-2.1,1.7-3.8,3.8-3.8h0.1c1.2,0,2.3,0.6,3,1.5v0l4.5,6
	l9.6,12.9l1.7,2.3h22.7l1.7-2.3l9.6-12.9l4.5-6v0c0.7-0.9,1.8-1.5,3-1.5h0.1c2.1,0,3.8,1.7,3.8,3.8v0.5v7.1v34
	c0,6.1-1.6,11.9-4.5,16.9C329.5,222.2,323,227.7,315.3,230.4z M298.3,198.4c0-3.1-2.6-5.7-5.7-5.7s-5.7,2.6-5.7,5.7s2.6,5.7,5.7,5.7
	S298.3,201.5,298.3,198.4z M315.3,204c3.1,0,5.7-2.6,5.7-5.7s-2.6-5.7-5.7-5.7s-5.7,2.6-5.7,5.7S312.2,204,315.3,204z"/>
<path class="st1" d="M261,147.3c-0.7,0.2-1.3,0.3-2,0.5c-2,0.5-4,1-6,1.4c-0.1,0-0.2,0.1-0.2,0.2c-0.6,2.6-1.3,5.2-1.9,7.8
	c0,0,0,0.1,0,0.1c0-0.1-0.1-0.2-0.1-0.2c-0.6-2.6-1.2-5.1-1.8-7.7c0-0.1-0.1-0.2-0.2-0.2c-2.6-0.6-5.2-1.2-7.8-1.9
	c0,0-0.1,0-0.1-0.1c0.4-0.1,0.7-0.2,1.1-0.3c2.3-0.5,4.6-1.1,6.9-1.6c0.1,0,0.2-0.1,0.2-0.2c0.6-2.6,1.3-5.2,1.9-7.9c0,0,0,0,0-0.1
	c0,0.1,0.1,0.2,0.1,0.2c0.6,2.6,1.2,5.1,1.8,7.7c0,0.2,0.1,0.2,0.2,0.2C255.7,146,258.3,146.7,261,147.3
	C260.9,147.3,260.9,147.3,261,147.3z"/>
</svg>